<svg width="201" height="40" viewBox="0 0 201 40" fill="none" xmlns="http://www.w3.org/2000/svg">
<path d="M5.24898 0.325853L12.7697 0.31172C17.7788 0.304653 21.1441 0.488388 22.8655 0.87706C24.587 1.26573 25.8992 2.26214 26.8164 3.8663C27.7265 5.47045 27.9593 8.02861 27.5148 11.5479C27.1056 14.7632 26.4354 16.9186 25.5112 18.0281C24.5799 19.1375 22.9431 19.8018 20.6008 20.035C22.6327 20.5509 23.952 21.2576 24.5587 22.1338C25.1655 23.0172 25.5112 23.8228 25.5958 24.5648C25.6805 25.3068 25.5041 27.335 25.0808 30.6705L23.6698 38.5004H13.8773L15.5988 27.8862C15.881 25.6743 15.881 24.3104 15.5988 23.7804C15.3236 23.2575 14.4488 22.996 12.9884 23.0031L10.6179 38.5004H0L5.24898 0.325853ZM14.9779 7.37847L13.8138 16.5652C15.0062 16.5652 15.8669 16.3956 16.3819 16.0564C16.8969 15.7172 17.2779 14.6502 17.5107 12.8269L17.8 10.5585C17.9693 9.25116 17.8423 8.38902 17.4331 7.98621C17.0239 7.57634 16.2055 7.37847 14.9779 7.37847Z" fill="#152535"/>
<path d="M52.9061 20.2542L39.8965 20.2683L38.7677 28.3598C38.5278 30.0558 38.4855 31.1511 38.6336 31.6387C38.7818 32.1263 39.1628 32.3737 39.7836 32.3737C40.5526 32.3737 41.11 32.0415 41.4557 31.3914C41.8014 30.7413 42.1047 29.4834 42.3658 27.6178L43.0501 22.6852L52.5815 22.671L52.2076 25.4271C51.8972 27.7379 51.5303 29.5116 51.1 30.7554C50.6767 31.9991 49.8935 33.3277 48.7506 34.7481C47.6077 36.1685 46.2602 37.2427 44.701 37.9564C43.1418 38.6772 41.2581 39.0376 39.0499 39.0518C36.8416 39.0659 35.0638 38.7196 33.5187 38.0271C31.9736 37.3345 30.8307 36.3735 30.0899 35.158C29.3492 33.9425 28.9047 32.5998 28.7636 31.1299C28.6225 29.66 28.7495 27.533 29.1516 24.7416L30.7108 13.8447C31.1764 10.5939 31.9313 8.03579 32.9825 6.17016C34.0267 4.30454 35.5082 2.87706 37.4202 1.89478C39.3321 0.9125 41.4345 0.424894 43.7274 0.43196C46.5283 0.439027 48.7577 1.04677 50.4156 2.24105C52.0736 3.43533 53.1318 5.01828 53.5975 6.99697C54.0631 8.9686 54.056 11.7529 53.5692 15.3428L52.9061 20.2683V20.2542ZM43.678 14.2121L44.0519 11.4985C44.32 9.5834 44.3976 8.34672 44.2918 7.78845C44.186 7.23018 43.8544 6.95457 43.29 6.95457C42.5986 6.95457 42.133 7.18777 41.9001 7.66125C41.6673 8.13472 41.4063 9.4138 41.117 11.4985L40.736 14.2121H43.671H43.678Z" fill="#152535"/>
<path d="M68.307 1.08193L67.7355 4.55171C68.6245 3.16662 69.6404 2.12781 70.7763 1.4282C71.9121 0.735662 73.168 0.382324 74.5507 0.382324C76.2792 0.382324 77.6409 0.841663 78.6356 1.76034C79.6304 2.68609 80.2019 3.8521 80.3571 5.25838C80.5123 6.66467 80.4065 9.01789 80.0325 12.3039L77.0553 38.4933H67.03L69.9156 12.6502C70.2119 10.0567 70.3177 8.48082 70.226 7.90841C70.1343 7.33601 69.7533 7.0604 69.076 7.0604C68.3634 7.0604 67.8766 7.39254 67.6156 8.04268C67.3546 8.69282 67.0653 10.4454 66.7478 13.2791L63.9117 38.4792H53.8018L58.0277 1.10313L68.307 1.08193Z" fill="#152535"/>
<path d="M95.9702 0.467285L95.2929 5.06067H98.0021L97.3248 10.3749H94.6156L92.3157 29.0876C92.0335 31.2995 91.9841 32.5362 92.1816 32.7835C92.3792 33.0309 93.2893 33.1581 94.9331 33.151L94.2417 38.5712L90.1921 38.5924C87.9062 38.6065 86.2836 38.5147 85.3241 38.3309C84.3716 38.1401 83.5603 37.702 82.9042 37.0024C82.2481 36.3028 81.8812 35.5042 81.8177 34.5997C81.7471 33.6952 81.9306 31.5681 82.3609 28.2255L84.541 10.4243H82.375L83.0523 5.10307H85.2182L85.8955 0.502619L95.9772 0.481419L95.9702 0.467285Z" fill="#152535"/>
<path d="M149.56 0.453125L144.678 38.4228L134.251 38.4793L136.014 24.4659H132.903L131.132 38.4934L120.684 38.55L125.566 0.502592L136.014 0.481392L134.06 15.371H137.185L139.14 0.474325L149.567 0.453125H149.56Z" fill="#152535"/>
<path d="M176.384 0.537913L170.98 38.444H160.884L161.47 35.1155C160.602 36.3946 159.614 37.3486 158.514 37.9917C157.413 38.6348 156.2 38.9598 154.88 38.9669C153.378 38.974 152.171 38.6772 151.268 38.0765C150.365 37.4758 149.737 36.6702 149.406 35.6667C149.074 34.6633 148.926 33.6103 148.961 32.515C148.996 31.4196 149.236 29.2431 149.688 25.9782L153.222 0.446045L163.297 0.467245L159.678 26.1761C159.269 29.13 159.099 30.8755 159.177 31.4267C159.255 31.9779 159.643 32.2535 160.334 32.2464C161.075 32.2464 161.554 31.9567 161.773 31.3843C161.992 30.8119 162.323 28.9816 162.754 25.8793L166.359 0.516712L176.384 0.537913Z" fill="#152535"/>
<path d="M189.704 0.474121L188.463 7.0674C189.408 6.09219 190.417 5.35725 191.482 4.87671C192.548 4.39617 193.676 4.14883 194.855 4.14883C196.216 4.14883 197.359 4.36083 198.304 4.79191C199.243 5.22298 199.927 5.83779 200.35 6.6222C200.774 7.40661 200.985 8.18395 201 8.93302C201.014 9.6821 200.858 11.3004 200.541 13.7667L198.608 28.8118C198.29 31.264 197.902 33.0872 197.43 34.2885C196.957 35.4899 196.075 36.5358 194.784 37.4191C193.493 38.3024 192.04 38.7547 190.417 38.7618C189.253 38.7618 188.202 38.5144 187.263 37.9986C186.325 37.4827 185.5 36.7054 184.801 35.6665L183.835 38.4862H174.543L179.764 0.495321L189.697 0.474121H189.704ZM190.565 14.2543C190.784 12.5229 190.826 11.3923 190.678 10.8693C190.53 10.3464 190.149 10.0778 189.528 10.0778C188.907 10.0778 188.498 10.311 188.258 10.7774C188.018 11.2368 187.778 12.4028 187.538 14.2684L185.69 28.6775C185.457 30.4725 185.415 31.6244 185.556 32.1261C185.697 32.6278 186.071 32.8752 186.678 32.8752C187.284 32.8752 187.736 32.6066 187.997 32.0908C188.258 31.5749 188.505 30.317 188.759 28.3383L190.565 14.2614V14.2543Z" fill="#152535"/>
<path d="M102.249 0.424805L100.436 13.576L105.467 18.551L119.492 18.1906L120.24 13.1238L110.398 13.3216L121.524 4.38219L117.876 0.523739L106.701 9.67518L107.992 0.424805H102.249Z" fill="#FF8E3C"/>
<path d="M116.514 38.5005L118.341 25.4765L113.318 20.5085L99.2998 20.8619L98.559 25.9287L108.394 25.7309L97.2891 34.642L100.929 38.4793L112.084 29.3703L110.729 38.5005H116.514Z" fill="#FF8E3C"/>
</svg>
